<?xml version="1.0" encoding="utf-8"?>
<!-- Generator: $$$/GeneralStr/196=Adobe Illustrator 27.6.0, SVG Export Plug-In . SVG Version: 6.00 Build 0)  -->
<svg version="1.1" id="Calque_1" xmlns="http://www.w3.org/2000/svg" xmlns:xlink="http://www.w3.org/1999/xlink" x="0px" y="0px"
	 viewBox="0 0 300 104" style="enable-background:new 0 0 300 104;" xml:space="preserve">
<style type="text/css">
	.st0{fill:#555555;}
	.st1{fill:#89BB7E;}
</style>
<g>
	<g>
		<path class="st0" d="M142.7,29.9c0.4,3.2,0.4,7.5,0,10.7c-0.5,4.6-3.8,8.4-9.1,8.4s-8.5-3.8-9.1-8.4c-0.4-3.2-0.4-7.5,0-10.7
			c0.5-4.6,3.8-8.4,9.1-8.4S142.2,25.3,142.7,29.9 M137.4,40.6c0.4-3.2,0.4-7.5,0-10.7c-0.2-1.7-1.4-3-3.7-3s-3.5,1.4-3.7,3
			c-0.4,3.2-0.4,7.5,0,10.7c0.2,1.7,1.4,3,3.7,3S137.2,42.3,137.4,40.6"/>
		<path class="st0" d="M156.4,21.9c4.4,0,8,3.6,8,8s-3.6,8-8,8H153c-0.2,0-0.4,0.2-0.4,0.4v9.5c0,0.4-0.3,0.8-0.8,0.8H148
			c-0.4,0-0.8-0.3-0.8-0.8V22.7c0-0.4,0.3-0.8,0.8-0.8C148,21.9,156.4,21.9,156.4,21.9z M152.9,27.2c-0.2,0-0.4,0.2-0.4,0.4v4.6
			c0,0.2,0.2,0.4,0.4,0.4h3.4c1.4,0,2.7-1.2,2.7-2.7c0-1.4-1.2-2.7-2.7-2.7H152.9z M172.9,42.9c0,0.2,0.2,0.4,0.4,0.4h9
			c0.4,0,0.8,0.3,0.8,0.8v3.8c0,0.4-0.3,0.8-0.8,0.8h-14c-0.4,0-0.8-0.3-0.8-0.8V22.7c0-0.4,0.3-0.8,0.8-0.8h13.8
			c0.4,0,0.8,0.3,0.8,0.8v3.8c0,0.4-0.3,0.8-0.8,0.8h-8.9c-0.2,0-0.4,0.2-0.4,0.4v4.6c0,0.2,0.2,0.4,0.4,0.4h8.6
			c0.4,0,0.8,0.3,0.8,0.8v3.8c0,0.4-0.3,0.8-0.8,0.8h-8.6c-0.2,0-0.4,0.2-0.4,0.4L172.9,42.9L172.9,42.9z M199.4,48.6
			c-0.6,0-0.9-0.3-1-0.6l-5.2-13.4c-0.1-0.2-0.3-0.2-0.3,0.1v13.2c0,0.4-0.3,0.8-0.8,0.8h-3.8c-0.4,0-0.8-0.3-0.8-0.8V22.7
			c0-0.4,0.3-0.8,0.8-0.8h4.5c0.6,0,0.8,0.3,1,0.7l5.2,14.5c0.1,0.2,0.3,0.2,0.3-0.1V22.7c0-0.4,0.3-0.8,0.8-0.8h3.8
			c0.4,0,0.8,0.3,0.8,0.8v25.1c0,0.4-0.3,0.8-0.8,0.8H199.4z M224.4,38.3v9.5c0,0.4-0.3,0.8-0.8,0.8h-3.8c-0.4,0-0.8-0.3-0.8-0.8
			V22.7c0-0.4,0.3-0.8,0.8-0.8h13.3c0.4,0,0.8,0.3,0.8,0.8v3.8c0,0.4-0.3,0.8-0.8,0.8h-8.4c-0.2,0-0.4,0.2-0.4,0.4v4.6
			c0,0.2,0.2,0.4,0.4,0.4h8c0.4,0,0.8,0.3,0.8,0.8v3.8c0,0.4-0.3,0.8-0.8,0.8h-8C224.6,37.9,224.4,38.1,224.4,38.3 M255.6,29.9
			c0.4,3.2,0.4,7.5,0,10.7c-0.5,4.6-3.8,8.4-9.1,8.4s-8.5-3.8-9.1-8.4c-0.4-3.2-0.4-7.5,0-10.7c0.5-4.6,3.8-8.4,9.1-8.4
			S255.1,25.3,255.6,29.9 M250.3,40.6c0.4-3.2,0.4-7.5,0-10.7c-0.2-1.7-1.4-3-3.7-3s-3.5,1.4-3.7,3c-0.4,3.2-0.4,7.5,0,10.7
			c0.2,1.7,1.4,3,3.7,3S250.1,42.3,250.3,40.6 M278,29.9c0.4,3.2,0.4,7.5,0,10.7c-0.5,4.6-3.8,8.4-9.1,8.4s-8.5-3.8-9.1-8.4
			c-0.4-3.2-0.4-7.5,0-10.7c0.5-4.6,3.8-8.4,9.1-8.4S277.4,25.3,278,29.9 M272.6,40.6c0.4-3.2,0.4-7.5,0-10.7c-0.2-1.7-1.4-3-3.7-3
			c-2.3,0-3.5,1.4-3.7,3c-0.4,3.2-0.4,7.5,0,10.7c0.2,1.7,1.4,3,3.7,3C271.2,43.6,272.4,42.3,272.6,40.6"/>
		<path class="st0" d="M291.2,21.9c4.7,0,8,3.8,8.5,8.4c0.4,3.2,0.4,6.6,0,9.8c-0.5,4.6-3.8,8.4-8.5,8.4h-8c-0.4,0-0.8-0.3-0.8-0.8
			v-25c0-0.4,0.3-0.8,0.8-0.8C283.2,21.9,291.2,21.9,291.2,21.9z M288.2,27.2c-0.2,0-0.4,0.2-0.4,0.4v15.2c0,0.2,0.2,0.4,0.4,0.4h3
			c1.8,0,2.9-1.4,3.1-3.1c0.4-3.2,0.4-6.6,0-9.8c-0.2-1.7-1.4-3.1-3.1-3.1H288.2z M137.5,82.2c-0.4,0-0.6-0.1-0.8-0.6l-9.1-20.8
			c-0.1-0.1-0.3-0.1-0.3,0.1v20.6c0,0.4-0.3,0.7-0.8,0.7h-0.8c-0.4,0-0.8-0.3-0.8-0.7V57.6c0-0.4,0.3-0.7,0.8-0.7h2
			c0.4,0,0.6,0.1,0.8,0.6l9.1,20.6c0.1,0.1,0.3,0.1,0.3-0.1V57.6c0-0.4,0.3-0.7,0.8-0.7h0.8c0.4,0,0.8,0.3,0.8,0.7v23.9
			c0,0.4-0.3,0.7-0.8,0.7C139.5,82.2,137.5,82.2,137.5,82.2z M146.7,79.6c0,0.2,0.2,0.4,0.4,0.4h9.9c0.4,0,0.8,0.3,0.8,0.7v0.9
			c0,0.4-0.3,0.7-0.8,0.7h-12c-0.4,0-0.8-0.3-0.8-0.7v-24c0-0.4,0.3-0.7,0.8-0.7h12c0.4,0,0.8,0.3,0.8,0.7v0.9
			c0,0.4-0.3,0.7-0.8,0.7h-9.9c-0.2,0-0.4,0.1-0.4,0.4v8.2c0,0.2,0.2,0.4,0.4,0.4h9.4c0.4,0,0.8,0.3,0.8,0.7v0.8
			c0,0.4-0.3,0.7-0.8,0.7h-9.4c-0.2,0-0.4,0.1-0.4,0.4C146.7,70.8,146.7,79.6,146.7,79.6z M170,59.6v21.9c0,0.4-0.3,0.7-0.8,0.7h-1
			c-0.4,0-0.8-0.3-0.8-0.7V59.6c0-0.2-0.2-0.4-0.4-0.4h-5.6c-0.4,0-0.8-0.3-0.8-0.7v-0.9c0-0.4,0.3-0.7,0.8-0.7H176
			c0.4,0,0.8,0.3,0.8,0.7v0.9c0,0.4-0.3,0.7-0.8,0.7h-5.6C170.2,59.2,170,59.4,170,59.6 M187,82.2h-2.1c-0.3,0-0.6-0.2-0.7-0.5
			L179,57.6c-0.1-0.4,0.2-0.7,0.8-0.7h0.9c0.3,0,0.6,0.1,0.7,0.5l4.3,20.7c0,0.1,0.1,0.2,0.2,0.2h0.1c0.1,0,0.2-0.1,0.2-0.2l4-20.7
			c0.1-0.4,0.4-0.5,0.7-0.5h1.3c0.3,0,0.6,0.2,0.7,0.5l4.3,20.7c0,0.1,0.1,0.2,0.2,0.2h0.1c0.1,0,0.2-0.1,0.2-0.2l4.6-20.7
			c0.1-0.4,0.4-0.5,0.7-0.5h0.9c0.6,0,0.8,0.4,0.8,0.7l-5.5,24.1c-0.1,0.4-0.4,0.5-0.7,0.5h-2.1c-0.3,0-0.6-0.2-0.7-0.5l-4-19.3
			c0-0.2-0.3-0.2-0.3,0l-3.8,19.3C187.6,82.1,187.3,82.2,187,82.2 M223.9,64.1c0.4,2.9,0.4,7.9,0,10.9c-0.6,4.7-3.9,7.5-8.5,7.5
			s-7.8-2.9-8.5-7.5c-0.4-2.9-0.4-8,0-10.9c0.6-3.9,3.5-7.5,8.5-7.5S223.3,60.2,223.9,64.1 M221.3,75c0.5-3,0.5-7.9,0-10.9
			c-0.4-2.6-2.3-5.2-5.9-5.2c-3.6,0-5.5,2.6-5.9,5.2c-0.5,3-0.5,7.9,0,10.9c0.3,2.1,1.8,5.2,5.9,5.2C219.5,80.2,221,77.1,221.3,75"
			/>
		<path class="st0" d="M230.9,72.1c-0.2,0-0.4,0.1-0.4,0.4v9c0,0.4-0.3,0.7-0.8,0.7h-0.9c-0.4,0-0.8-0.3-0.8-0.7V57.6
			c0-0.4,0.3-0.7,0.8-0.7h6.5c4.4,0,8,3.4,8,7.6c0,3.3-1.8,5.2-4.5,6.9c-0.5,0.3-0.6,0.6-0.3,1.2l4.8,8.6c0.3,0.5,0,1.1-0.7,1.1
			h-0.8c-0.6,0-0.9-0.3-1.1-0.7l-4.9-9c-0.1-0.2-0.3-0.4-0.7-0.4h-4.2L230.9,72.1z M230.9,59.2c-0.2,0-0.4,0.1-0.4,0.4v9.8
			c0,0.2,0.2,0.4,0.4,0.4h4.4c3,0,5.6-2.4,5.6-5.3c0-2.9-2.5-5.3-5.6-5.3C235.3,59.2,230.9,59.2,230.9,59.2z M249.3,71.4
			c-0.1-0.1-0.3-0.1-0.3,0.1v10c0,0.4-0.3,0.7-0.8,0.7h-0.9c-0.4,0-0.8-0.3-0.8-0.7V57.6c0-0.4,0.3-0.7,0.8-0.7h0.9
			c0.4,0,0.8,0.3,0.8,0.7v9.6c0,0.2,0.2,0.2,0.3,0.1l8.8-10c0.1-0.1,0.4-0.4,1-0.4h0.6c0.9,0,1.1,0.8,0.6,1.3l-9.4,10.5
			c-0.2,0.3-0.3,0.5,0,0.9L261,80.9c0.4,0.5,0.3,1.3-0.7,1.3h-0.8c-0.6,0-0.8-0.3-1-0.5C258.5,81.7,249.3,71.4,249.3,71.4z"/>
	</g>
	<path class="st1" d="M3,44.3h0.5c1.2,0,2.2-0.9,2.4-2c0.5-2.4,1.1-4.7,2-7c6.6-18.2,23.5-30.4,42-30.4s35.4,12.2,42,30.3
		c0.8,2.2,1.5,4.6,2,6.9c0.3,1.3,1.6,2.2,2.9,1.9s2.2-1.6,1.9-2.9c-0.5-2.6-1.3-5.1-2.2-7.6C89.2,13.5,70.5,0,49.9,0
		S10.6,13.5,3.3,33.6c-0.9,2.5-1.6,5.1-2.2,7.7v0.2L3.5,42l-2.4-0.5C0.8,42.8,1.7,44.1,3,44.3 M99.8,53c0.1-1-0.4-2-1.4-2.5
		c-3.4-1.6-7.7-3.1-12.5-4.2c-1.5-0.4-3.1-0.7-4.7-1c-3.3-0.6-6.9-1.2-10.7-1.6c-0.7-7.4-3.9-12.8-9.5-16.6
		c-6.3-4.2-14.1-4.4-20.9-0.6C33.5,30.1,29.3,36.6,29,43.8c-11.1,1.4-20.8,3.8-27.6,7.1c-0.1,0-0.1,0.1-0.2,0.1S1.1,51.1,1,51.1
		l-0.1,0.1c-0.1,0.1-0.2,0.1-0.2,0.2c-0.4,0.4-0.6,1-0.6,1.6c0,1.4,0.1,2.7,0.2,4.1c0,0.4,0.1,0.7,0.1,1.1c0.3,2.6,0.8,5.2,1.5,7.7
		c0.2,0.7,0.3,1.4,0.5,2c0.3,0.9,0.6,1.7,0.9,2.6c0.7,1.8,1.4,3.6,2.2,5.2s1.7,3.1,2.6,4.6c0.7,1.2,1.5,2.3,2.4,3.5
		c1,1.3,2,2.6,3.2,3.8c1.5,1.7,3.1,3.2,4.8,4.6c1.4,1.2,2.9,2.3,4.4,3.3c1.9,1.3,3.8,2.4,5.9,3.4c2,0.9,4,1.8,6.1,2.4
		c2.1,0.7,4.3,1.2,6.5,1.6c2.8,0.5,5.7,0.8,8.7,0.8h0.1c13.6,0,26.5-5.9,35.8-15.9c1.8-1.9,3.4-3.9,4.9-6.1c0.2-0.2,0.3-0.5,0.5-0.7
		c1.5-2.4,2.9-4.8,4-7.4c0.9-2,1.6-4,2.2-6C98.9,63.1,99.7,58.1,99.8,53C99.8,53.1,99.8,53.1,99.8,53 M85.7,51.3
		c3.3,0.8,6.3,1.8,8.9,2.9c-3.4,1.6-6.7,2.9-9.9,4.1C82.8,59,81,59.5,79.2,60c-3.5,1-7.1,1.6-10.7,2c1.3-4.4,2-8.8,2.2-13.4
		c3.6,0.4,7,1,10.2,1.6C82.6,50.6,84.2,50.9,85.7,51.3 M72.7,74.4C69.5,74.8,66.2,75,63,75c1.5-2.5,2.7-5.2,3.8-7.8
		c3.6-0.2,7-0.7,10.4-1.5C75.9,68.6,74.4,71.5,72.7,74.4 M62.9,86.9c-2.8,0-5.6-0.1-8.4-0.5c1.9-2.1,3.7-4.3,5.4-6.5
		c1.2,0.1,2.5,0.1,3.7,0.1c1.8,0,3.7-0.1,5.5-0.2C67.2,82.2,65.1,84.6,62.9,86.9 M40.2,82.4c1.6-1.7,3-3.4,4.4-5.2
		c3.2,0.9,6.4,1.6,9.5,2c-1.7,2.1-3.5,4.1-5.4,6C45.9,84.5,43.1,83.6,40.2,82.4 M6.6,65c-0.5-1.9-0.9-3.8-1.2-5.8
		c7.2-1.8,16.6-1.4,26.2,1.3c-0.9,2-2,3.9-3.2,5.8C19.3,64,11.6,64.2,6.6,65 M57.3,74.7c-3.2-0.3-6.5-0.9-9.8-1.7
		c1.4-2.2,2.6-4.5,3.7-6.9c3.5,0.6,6.8,1,10.1,1.1C60.2,69.7,58.9,72.3,57.3,74.7 M42.7,71.4c-1.5-0.5-3-1.1-4.5-1.8
		c-1.7-0.7-3.3-1.3-4.9-1.9c1.1-1.9,2.2-3.8,3.1-5.8c3.5,1.2,6.8,2.2,10,3C45.3,67.2,44,69.4,42.7,71.4 M30.5,72
		c1.8,0.6,3.8,1.3,5.7,2.2c1.2,0.5,2.3,1,3.5,1.4c-1.3,1.7-2.8,3.3-4.3,4.8c-3.1-1.2-6.2-2.3-9.3-3C27.6,75.6,29.1,73.8,30.5,72
		 M42.5,30.7c5.2-2.9,11.1-2.7,15.8,0.4c4.2,2.8,6.5,6.7,7.3,12c-5-0.4-10.2-0.6-15.5-0.6c-5.5,0-10.9,0.3-16,0.7
		C34.5,38.1,37.6,33.4,42.5,30.7 M50,47.5h2.1c1,0,2,0,3.1,0.1c3.6,0.1,7.2,0.3,10.6,0.6c-0.2,4.8-1,9.5-2.5,14.1
		c-3.2,0-6.5-0.3-10-0.9c-1.6-0.3-3.2-0.6-4.9-1c-3.2-0.7-6.6-1.7-10.2-3c-0.1,0-0.2-0.1-0.3-0.1c-1.5-0.5-2.9-1-4.4-1.4
		c-9.6-2.8-18.9-3.5-26.7-2C17.1,49.8,32.9,47.5,50,47.5 M8.2,69.7c4.2-0.5,10.1-0.7,17.2,0.9c-1.5,1.9-3.2,3.8-5,5.5
		c-3.3-0.5-6.5-0.8-9.6-0.7C9.8,73.6,8.9,71.7,8.2,69.7 M17.7,84.9c-1.1-1.2-2.2-2.4-3.2-3.8c-0.2-0.3-0.4-0.5-0.6-0.8
		c0.5,0,1,0,1.5,0.1c2,0.2,4.2,0.4,6.5,0.9c2.8,0.6,6,1.5,9.3,2.7c-2.5,2.1-5.3,4.1-8.2,5.8C21.2,88.4,19.4,86.7,17.7,84.9
		 M27.6,92.9c3.2-2,6.1-4.3,8.8-6.8c2.7,1.2,5.3,2.2,8,2.9c-3,2.6-6.3,5.1-10,7.1C32,95.3,29.7,94.2,27.6,92.9 M40.7,98.1
		c3.5-2.3,6.6-5,9.4-7.5c2.7,0.5,5.3,0.9,7.9,1.1c-3.2,3-6.3,5.4-9.4,7.4C46,98.9,43.3,98.6,40.7,98.1 M57.8,98.3
		c2.4-1.9,4.7-4.1,7.2-6.6c3.6-0.1,7.2-0.6,10.8-1.3C70.5,94.4,64.3,97.1,57.8,98.3 M86.7,79.2c-1.1,1.6-2.3,3.1-3.5,4.5
		c-4.4,1.2-8.8,2.2-13.2,2.7c2.1-2.4,3.9-4.9,5.6-7.5c4.4-0.7,8.8-1.7,13.1-3C88,77.1,87.4,78.1,86.7,79.2 M78.9,73.3
		c1.6-3.1,3-6.2,4.1-9.3c3.7-1.2,7.4-2.6,11.3-4.3c-0.5,3.5-1.5,6.9-2.7,10.2C87.4,71.3,83.2,72.4,78.9,73.3"/>
</g>
</svg>
